<svg width="1024" height="1024" viewBox="0 0 1024 1024" fill="none" xmlns="http://www.w3.org/2000/svg"><rect x="616" y="524.381" width="92" height="24" rx="6" fill="#CD182C"/><rect x="650" y="446" width="24" height="138" rx="6" fill="#CD182C"/><path fill-rule="evenodd" clip-rule="evenodd" d="M512 204.8c-169.662 0-307.2 137.538-307.2 307.2 0 64.978 20.131 125.139 54.496 174.733 11.373 16.413 14.114 38.326 5.106 57.708L229.656 819.2H512c169.662 0 307.2-137.538 307.2-307.2S681.662 204.8 512 204.8M128 512c0-212.077 171.923-384 384-384s384 171.923 384 384-171.923 384-384 384H199.485c-43.554 0-71.106-46.336-50.977-84.42l41.767-89.866C150.895 661.409 128 589.326 128 512" fill="#2B2B2B"/><path d="M752.615 475.52q20.352 0 32.448 10.176 8.685 7.191 12.767 17.645c1.817 4.656-2.014 9.235-7.012 9.235h-14.594c-3.796 0-6.855-2.829-8.874-6.044a15.5 15.5 0 0 0-3.791-4.132q-4.608-3.84-11.712-3.84-5.568 0-8.448 2.496-2.88 2.304-2.88 6.72 0 4.992 5.184 7.488 5.376 2.496 16.704 4.992 12.288 2.88 20.16 5.952 7.872 2.88 13.632 9.6t5.76 18.048q0 9.216-4.992 16.32t-14.4 11.136-22.272 4.032q-21.696 0-34.752-9.6-9.51-6.993-13.62-18.366c-1.675-4.633 2.152-9.09 7.078-9.09h15.126c4.076 0 7.217 3.285 9.365 6.75a13.6 13.6 0 0 0 3.555 3.81q5.184 3.648 13.248 3.648 5.568 0 8.448-2.496 2.88-2.688 2.88-6.912 0-5.568-5.376-7.872-5.184-2.496-17.088-5.184-11.904-2.496-19.584-5.376t-13.248-9.216q-5.568-6.528-5.568-17.664 0-14.4 10.944-23.232 10.944-9.024 30.912-9.024m-207.521 0q12.288 0 21.12 5.568 4.709 2.967 8.106 7.081c1.379 1.668 4.95.739 4.95-1.425v-7.88a2 2 0 0 1 2-2h28.64a2 2 0 0 1 2 2V582a2 2 0 0 1-2 2h-28.64a2 2 0 0 1-2-2v-7.881c0-2.164-3.571-3.093-4.95-1.425q-3.397 4.113-8.106 7.082-8.832 5.568-21.12 5.568-13.248 0-23.808-6.528-10.368-6.72-16.512-19.2-5.952-12.48-5.952-29.184 0-16.896 5.952-29.184 6.144-12.48 16.512-19.008 10.56-6.72 23.808-6.72m10.56 28.8q-10.56 0-17.088 6.912-6.336 6.912-6.336 19.2t6.336 19.2q6.528 6.912 17.088 6.912 10.368 0 16.896-7.104 6.72-7.104 6.72-19.008 0-12.096-6.72-19.008-6.528-7.104-16.896-7.104M442.61 475.711q18.432 0 29.184 12.288 10.944 12.288 10.944 33.792v60.208a2 2 0 0 1-2 2h-28.832a2 2 0 0 1-2-2v-56.368q0-10.752-5.76-16.704-5.568-6.144-14.976-6.144-9.984 0-15.936 6.336-5.76 6.336-5.76 18.048v54.832a2 2 0 0 1-2 2h-28.832a2 2 0 0 1-2-2v-138.08a2 2 0 0 1 2-2h28.832a2 2 0 0 1 2 2v43.739c0 2.128 3.343 3.028 4.693 1.383q3.735-4.551 8.939-7.762 9.216-5.568 21.504-5.568m-151.267-28.8q25.92 0 42.816 13.632 13.424 10.71 19.383 27.344c1.719 4.796-2.11 9.52-7.205 9.52h-19.475c-3.25 0-6.097-2.019-7.769-4.807a31 31 0 0 0-9.51-9.977q-7.872-5.376-18.816-5.376-14.4 0-23.232 10.56t-8.832 28.224 8.832 28.224q8.832 10.368 23.232 10.368 10.944 0 18.816-5.376 5.86-3.906 9.49-9.842c1.685-2.755 4.518-4.75 7.747-4.75h19.5c5.101 0 8.929 4.734 7.195 9.531q-5.963 16.497-19.356 27.333-16.896 13.632-42.816 13.632-19.776 0-34.752-8.64-14.976-8.832-23.232-24.576-8.064-15.744-8.064-35.904t8.064-35.904q8.256-15.744 23.232-24.384 14.976-8.832 34.752-8.832" fill="#2B2B2B"/></svg>